<svg version="1.2" xmlns="http://www.w3.org/2000/svg" viewBox="0 0 1539 1545" width="1539" height="1545">
	<title>corner-svg</title>
	<defs>
		<clipPath clipPathUnits="userSpaceOnUse" id="cp1">
			<path d="m0 0h9920.36v1545h-9920.36z"/>
		</clipPath>
	</defs>
	<style>
		.s0 { fill: #fa4616 } 
	</style>
	<g id="Clip-Path" clip-path="url(#cp1)">
		<g id="Layer">
			<path id="Layer" class="s0" d="m1251.3 789.6c-253.8 0-459.5 205-460.4 458.1 0 0.4 0.1 0.8 0.1 1.4 0 9.5-7.7 17.2-17.2 17.2-9.5 0-17.1-7.6-17.2-17.1 0-253.5-205.5-458.9-459.1-459.6-0.4 0-0.9 0.1-1.3 0.1-9.5 0-17.2-7.7-17.2-17.2 0-9.5 7.7-17.2 17.2-17.2 254.3 0 460.4-205.7 460.4-459.6h0.1c0-9.5 7.7-17.2 17.2-17.2 9.5 0 17.2 7.7 17.2 17.2 0 0.7-0.1 1.2-0.2 1.7 1 253 206.6 457.9 460.4 457.9 108.7 0 208.6-37.8 287.3-100.7-56.7-370.6-377.6-654.6-764.8-654.6-427.4 0-773.8 345.8-773.8 772.5 0 426.7 346.4 772.5 773.8 772.5 387.2 0 708.1-284 764.8-654.8-78.7-62.8-178.6-100.6-287.3-100.6z"/>
		</g>
	</g>
</svg>