<svg width="557" height="640" viewBox="0 0 557 640" fill="none" xmlns="http://www.w3.org/2000/svg">
<g clip-path="url(#clip0_2_2)">
<path d="M553.342 636.339H79.2432V3.66138H416.3V145.611H553.342V636.339Z" fill="#FCFCFC" stroke="#818181" stroke-width="10" stroke-miterlimit="10"/>
<path d="M294.483 162.534H27.4363C12.2836 162.534 0 174.828 0 189.994V457.271C0 472.436 12.2836 484.73 27.4363 484.73H294.483C309.635 484.73 321.919 472.436 321.919 457.271V189.994C321.919 174.828 309.635 162.534 294.483 162.534Z" fill="#107C42"/>
<path d="M256 444H209.788L73 214H120.136L256 444Z" fill="white"/>
<path d="M73 444H119.212L256 214H208.864L73 444Z" fill="white"/>
<path d="M416.3 244.914H338.746V279.33H416.3V244.914Z" fill="#21A365"/>
<path d="M512.144 244.914H434.59V279.33H512.144V244.914Z" fill="#33C481"/>
<path d="M416.3 296.904H338.746V331.321H416.3V296.904Z" fill="#107C42"/>
<path d="M512.144 296.904H434.59V331.321H512.144V296.904Z" fill="#21A365"/>
<path d="M416.3 348.895H338.746V383.312H416.3V348.895Z" fill="#195D38"/>
<path d="M512.144 348.895H434.59V383.312H512.144V348.895Z" fill="#104B2B"/>
<path d="M550.606 146.058H418.151C417.126 146.058 416.3 145.23 416.3 144.205V6.23156C416.3 3.96153 419.065 2.84849 420.631 4.48876L552.391 141.854C553.905 143.436 552.786 146.065 550.598 146.065L550.606 146.058Z" fill="#FCFCFC" stroke="#818181" stroke-width="10" stroke-miterlimit="10"/>
</g>
<defs>
<clipPath id="clip0_2_2">
<rect width="557" height="640" fill="white"/>
</clipPath>
</defs>
</svg>
