<?xml version="1.0" encoding="UTF-8"?>
<svg id="storyquiz" xmlns="http://www.w3.org/2000/svg" viewBox="0 0 512.66 511.64">
  <defs>
    <style>
      .cls-1 {
        fill: #f67600;
      }

      .cls-1, .cls-2 {
        stroke-width: 0px;
      }

      .cls-2 {
        fill: #fa8c12;
      }
    </style>
  </defs>
  <path class="cls-2" d="M.23,247.4c-.83-43.8.34-86.77,7.89-130.32C36.32-40.39,374.09,6.55,374.09,6.55c53.32,115.85,17.33,265.45-88.45,338.84,1.16-31.1-18.75-29.05-43.06-27.03-18.55,2.13-15.88,24.02-15.52,37.77.33,7.84,2.94,14.22,10.07,18.21-55.4,27.58-119.07,30.09-178.92,19.8C8.43,361.81,5.69,300.6.23,247.4ZM267.1,82.18c-79.67-5.6-135.71,100.02-63.52,102.71h.01c29.42-3.47,20.31-37.66,47.41-45.33,19.37-7.27,51.92-.37,47.14,25.82-4.17,18.55-24.87,25.84-38.92,35.77-27.05,15.31-44.92,61.93-19.81,85.24h0c8.95,6.58,18.71,7.7,28.71,2.85,27.14-12.92,4.08-37.55,30.15-52.14h0c95.61-45.68,66.46-153.39-31.17-154.92Z"/>
  <path class="cls-1" d="M285.64,345.39c105.79-73.42,141.76-222.99,88.45-338.85,136.83,6.74,141.21,133.92,137.94,240.85-1.37,44.84-3.98,87.56-32.28,121.71-33.06,46.67-90.3,52.93-143.21,55.89-3,.26-4.71,1.38-6.28,3.85-12.67,19.94-26.03,39.42-39.98,58.49-9.22,13.01-21.57,26.66-39.14,23.97h0c-11.64-3.27-19.48-11.2-26.49-20.61-14.9-20-28.91-40.6-42.39-61.58-1.64-2.56-3.32-3.96-6.58-4.21-40.33-4.11-84.71-3.36-117.46-30.77,59.85,10.29,123.53,7.78,178.92-19.8h0c11.34,2.62,22.8,2.73,34.19.81,14.33-1.96,14.11-18.46,14.31-29.75Z"/>
</svg>