<?xml version="1.0" encoding="UTF-8"?>
<svg id="storyline" data-name="storyline" xmlns="http://www.w3.org/2000/svg" viewBox="0 0 4413.34 4407.03">
  <defs>
    <style>
      .cls-1 {
        fill: #c560b3;
        fill-rule: evenodd;
        stroke-width: 0px;
      }
    </style>
  </defs>
  <path id="Color_Fill_1" data-name="Color Fill 1" class="cls-1" d="M2191.78.43c1341.07-27.19,2428.84,1242.5,2187.96,2558.38-134.25,840.71-780.88,1566.2-1613.55,1772.58C639.98,4880.43-895.92,2314.42,592.37,704.42,1001.39,268.18,1589.04-1.25,2191.58.43h.2ZM2581.98,1328.41c-61.09,7.93-67.75,80.95-68.67,130.73-1.14,31.35-2.09,62.59-1.67,93.88-1.88,124.72.14,249.48-4.5,374.13-2.67,135.95-5.1,271.75-5.89,407.8-.47,69.82,0,139.47-.44,209.58.25,61.98-4.48,127.66,17.96,186.94,38.29,113.18,146.69,175.92,264.21,156.72,43.28-8.08,103.74-19.16,114.59-69.28,6.93-40.2-29.19-62.38-64.03-68.18-26.28-4.89-53.49-4.86-79.03-13.45-71.09-22.51-86.86-84.52-90.96-151.87-4.15-233.09-2.14-466.43-4.04-699.46,0-117.73.02-322.79,0-400.74-.04-58.87.9-163.01-77.33-156.81l-.19.02ZM1893.2,1732.86c-171.81,1.94-353.15,89.43-392.7,269.33-19.16,85.24,2.99,181.99,68.42,242.22,84.24,75.46,194.82,90.6,304.7,121.51,21.19,5.64,42.39,11.21,63.57,16.66,45.72,11.7,93.14,24.9,135.87,43.79,61.1,25.7,113.79,71.04,120.75,140.6,7.93,77.52-50.23,144.46-119.01,172.91-68.5,29.06-152.5,33.91-225.85,25.91-63.08-6.18-125.66-21.44-182.03-50.77-35.58-17.46-67.68-42.86-106.48-52.44-19.74-4.61-42.32-3.94-59.11,8.1-32.84,24.15-22.64,69.09,3.2,95.19,15.34,16.48,34.42,29.84,53.75,41.45,46.4,27.59,94.52,46.64,146.79,62.83,48.48,15.62,98.81,23.63,149.6,25.75,63.36,2.66,127.24,1.18,189.43-11.47,109.4-25.32,220.27-84.28,271.17-187.41,47.82-98.88,47.38-217.6-31.13-301.79-38.24-42.31-89.25-69.91-141.85-90.56-102-41.15-211.16-59.7-316.53-91.12-37-11.24-74.82-23.43-107.69-43.9-27.09-16.73-48.82-41.75-59.51-71.88-17.31-46.88-8.94-99.82,18.96-141.09,49.78-75.49,151.72-94.79,236.54-95.3,64.04.38,128.01,12.35,187.29,36.41,40.36,14.71,84.7,46.47,128.23,43.19,39.61-3.46,57.14-40.14,39.06-75.26-13.15-25.66-37.14-44.24-60.92-59.3-85.18-53.61-203.47-74.91-314.3-73.54h-.22Z"/>
</svg>